<?xml version="1.0" standalone="no"?>
<!DOCTYPE svg PUBLIC "-//W3C//DTD SVG 20010904//EN"
 "http://www.w3.org/TR/2001/REC-SVG-20010904/DTD/svg10.dtd">
<svg version="1.0" xmlns="http://www.w3.org/2000/svg"
 width="384.000000pt" height="384.000000pt" viewBox="0 0 384.000000 384.000000"
 preserveAspectRatio="xMidYMid meet">
<metadata>
Created by potrace 1.11, written by Peter Selinger 2001-2013
</metadata>
<g transform="translate(0.000000,384.000000) scale(0.100000,-0.100000)"
fill="#000000" stroke="none">
<path d="M0 1920 l0 -1920 1920 0 1920 0 0 777 0 776 -168 -164 c-335 -330
-634 -544 -1052 -753 -414 -207 -750 -306 -1135 -336 -323 -26 -640 36 -838
164 -287 183 -418 492 -377 891 32 317 153 623 384 975 316 480 737 826 1261
1037 278 112 532 139 786 83 207 -45 310 -130 339 -277 19 -106 -26 -266 -142
-498 -247 -494 -635 -815 -1172 -967 -106 -30 -119 -32 -305 -33 l-194 -1 -19
-54 c-10 -30 -31 -111 -45 -180 -24 -110 -27 -147 -27 -315 0 -170 3 -202 26
-301 42 -177 78 -233 174 -270 37 -14 67 -16 187 -11 450 17 987 236 1419 579
363 288 619 550 846 865 l52 73 0 890 0 890 -1920 0 -1920 0 0 -1920z"/>
<path d="M2331 2992 c-194 -117 -345 -236 -512 -402 -205 -204 -328 -369 -473
-632 l-37 -67 57 -17 c75 -22 153 -15 272 25 205 68 369 169 511 316 132 136
228 294 291 475 37 108 45 370 10 370 -4 0 -58 -30 -119 -68z"/>
</g>
</svg>
