<?xml version="1.0" standalone="no"?>
<svg xmlns="http://www.w3.org/2000/svg" viewBox="0 0 338 60">
  <path id="site-logo" d="m 126.51729,17.777809 c -0.24917,-0.498348 -1.1628,-0.622935 -1.78574,-0.955166 -1.61962,0.207644 -2.03492,0.498347 -2.53327,1.95186 -0.24916,0.74752 -0.53987,1.495041 -0.91363,2.242562 -0.2907,0.539876 -0.0831,0.830579 0.41529,0.996694 1.07975,0.456818 2.24256,0.207645 3.03161,-0.664463 0.49835,-0.498347 0.9967,-1.038223 1.32892,-1.661157 0.29071,-0.581405 0.706,-1.453512 0.45682,-1.91033 z M 329.3127,32.025035 c -0.34885,-0.261632 -1.13375,-0.130817 -1.43898,0.218026 -0.95932,1.177345 -1.87503,2.398297 -3.09598,3.357615 -1.6134,1.22095 -3.40122,2.136663 -5.31986,2.834349 -1.04653,0.348843 -2.09306,0.65408 -3.13959,0.959319 -0.0435,-0.08721 -0.0872,-0.08721 -0.0872,-0.130817 -0.78489,-1.70061 -1.6134,-3.401219 -2.35469,-5.145435 -0.39245,-0.872107 -0.69768,-1.744214 -0.95932,-2.616322 -0.26163,-1.090134 0,-2.093058 0.65409,-2.965165 0.47966,-0.610476 0.82849,-0.56687 1.17734,0.130815 0.0436,0.08721 0.0872,0.174422 0.13081,0.261633 0.21803,0.741291 0.26163,1.482583 -0.0436,2.223874 -0.0872,0.174422 -0.13081,0.392448 -0.21803,0.610476 -0.0872,0.218026 -0.0436,0.436053 0.21803,0.479658 0.34885,0.0436 0.74129,0.0436 1.09014,0 0.0872,0 0.21802,-0.130815 0.26163,-0.261632 0.21802,-0.65408 0.52326,-1.351767 0.61047,-2.049453 0.26164,-1.569793 -0.34884,-3.052376 -2.26748,-3.401219 -1.43897,-0.261632 -2.83435,-0.0436 -4.09891,0.697686 -1.48258,0.872107 -2.44189,2.136663 -2.31108,3.968089 0.0437,0.566871 0.13082,1.177346 0.30524,1.70061 0.47966,1.177345 1.04653,2.311085 1.56979,3.444825 0.61048,1.395372 1.26456,2.790744 1.91864,4.229722 -0.26163,0.08721 -0.39245,0.130815 -0.52327,0.174421 -1.48258,0.566869 -2.92156,1.177346 -4.18611,2.093058 -0.87211,0.610476 -1.6134,1.308161 -1.96225,2.35469 -0.69768,2.049453 0.21803,4.0553 2.31109,5.014618 1.70061,0.741292 3.48843,0.741292 5.23264,0.218028 2.52912,-0.741292 4.18612,-2.747139 4.44775,-5.319857 0.17443,-1.569793 -0.13081,-3.052376 -0.56686,-4.534958 -0.0437,-0.174422 -0.0872,-0.305238 -0.13083,-0.47966 0.69769,-0.174421 1.30817,-0.348843 1.96225,-0.56687 2.74713,-0.828501 5.40707,-1.918636 7.76176,-3.706456 1.22095,-0.872108 2.13666,-2.005848 3.00877,-3.226799 0.13081,-0.174421 0.30524,-0.348843 0.0437,-0.566869 z m -16.74447,15.000249 c -0.34884,1.220951 -1.26456,1.875031 -2.4419,2.223874 -0.13082,0.0436 -0.30523,0.0436 -0.43606,0.0436 -1.30815,-0.305238 -2.57271,-1.831426 -2.61632,-3.183193 -0.0436,-0.828502 0.26163,-1.526188 0.7849,-2.136663 1.13374,-1.308162 2.65993,-1.962242 4.22972,-2.616323 0.56687,1.918636 1.04653,3.750062 0.47966,5.668699 z m -0.72026,-17.766077 c -0.64786,-0.299008 -1.39537,-0.04983 -1.74422,0.548183 -0.14951,0.249173 -0.29901,0.498347 -0.44851,0.747521 -1.69438,2.940248 -3.48843,5.730992 -5.93033,8.073223 -2.09306,1.893719 -4.18612,3.737604 -6.77753,4.933637 -2.09306,0.94686 -4.23595,1.644547 -6.52834,1.744216 -1.44521,0.04983 -2.1429,-0.398678 -2.49174,-1.744216 -0.64785,-2.342231 -0.34885,-4.684463 0.39868,-6.877191 1.09637,0 2.09306,0.149505 3.03991,-0.04983 4.78414,-1.096363 7.92373,-4.136281 9.56827,-8.671241 0.69769,-1.893719 -0.0996,-3.039917 -2.09305,-3.388761 -1.74423,-0.348843 -3.43861,-0.149504 -5.08315,0.498348 -4.48513,1.744215 -7.77421,4.784132 -10.06661,8.970249 -1.1462,2.093058 -1.89372,4.33562 -1.74422,6.777522 0.0997,2.043222 1.04654,3.637933 2.84058,4.684463 1.19604,0.647851 2.49174,0.897024 3.78744,0.996694 3.38877,0.149504 6.47852,-0.797356 9.4686,-2.242562 5.0333,-2.441901 8.97025,-6.12967 12.06,-10.764299 0.74751,-1.096363 1.2957,-2.342231 1.94355,-3.538265 0.0996,-0.249174 0.19934,-0.498347 -0.19933,-0.697687 z m -14.45208,-2.54157 c 0.0996,0.348843 0.24918,0.598017 0.24918,0.847191 -0.0499,0.697685 0,1.445207 -0.19934,2.093058 -1.09636,3.239256 -3.33893,5.332314 -6.67785,6.179504 -0.74752,0.149505 -1.34553,0.04983 -1.99339,-0.299007 1.89371,-3.887109 4.7343,-6.777522 8.6214,-8.820746 z m -9.16102,2.990083 c -0.44851,-0.249173 -1.34554,-0.149504 -1.69438,0.299009 -0.74751,0.797355 -1.4452,1.69438 -2.14289,2.54157 -0.94686,1.046529 -1.84389,2.093059 -2.79074,3.089753 -0.94686,0.996694 -2.09306,1.744214 -3.38877,2.242562 -0.94685,0.299008 -1.1462,0.199339 -1.54488,-0.747521 -0.39866,-0.996695 -0.44851,-2.093058 -0.299,-3.139587 0.299,-1.644546 0.64785,-3.289091 0.99669,-4.983471 0.24918,-1.04653 0.54818,-2.142893 0.69769,-3.239258 0.1495,-1.196033 -0.34884,-1.79405 -1.49504,-2.093057 -1.89372,-0.498347 -3.68777,-0.249174 -4.93363,1.495041 -1.34554,2.043224 -2.74092,4.036612 -3.98679,6.12967 -1.19602,1.993389 -2.24256,4.086447 -3.38875,6.079835 -0.79736,1.295704 -1.69438,2.591406 -2.54157,3.887109 -0.0499,-0.04983 -0.0997,-0.04983 -0.14951,-0.09967 0.0499,-0.199338 0.0996,-0.348842 0.0996,-0.548181 1.24587,-6.079836 3.18943,-11.910497 5.23266,-17.790993 0.34883,-0.94686 0.69768,-1.943555 0.94686,-2.940249 0.19933,-0.647851 -0.0499,-0.996694 -0.69769,-1.245868 -1.54487,-0.548181 -3.23926,0 -4.13628,1.345538 -0.49836,0.74752 -0.9967,1.544876 -1.34555,2.392066 -2.04321,4.684463 -3.63793,9.468596 -4.58478,14.501903 -0.34885,1.79405 -0.59803,3.588099 -0.39868,5.382149 0.1495,1.196033 0.59801,2.192727 1.84388,2.54157 1.64455,0.398678 3.13958,0.199339 4.28579,-1.196033 0.19934,-0.299009 0.44851,-0.498347 0.59801,-0.797355 1.19603,-1.893719 2.34224,-3.737604 3.48844,-5.681158 1.49503,-2.491735 2.99008,-5.033307 4.48512,-7.525043 0.24918,-0.398677 0.54818,-0.797355 0.79735,-1.096363 -0.1495,1.445207 -0.29901,2.940248 -0.39867,4.43529 -0.0499,1.495041 0.34884,2.890413 1.1462,4.186116 0.89702,1.395372 2.19272,2.093058 3.78743,2.142892 1.69438,0.04983 3.18943,-0.548181 4.5848,-1.445206 2.09305,-1.345538 3.8871,-3.039918 5.43198,-4.933637 0.64785,-0.797356 1.09636,-1.69438 1.64455,-2.54157 0.1495,-0.19934 0.19933,-0.448513 -0.14951,-0.647852 z m -27.44336,0.348843 c -0.39867,-0.299008 -1.2957,-0.149504 -1.64453,0.249174 -1.09637,1.345537 -2.1429,2.74091 -3.53828,3.837273 -1.84388,1.395373 -3.8871,2.441901 -6.07983,3.239256 -1.19603,0.398679 -2.39206,0.747522 -3.5881,1.096364 -0.0499,-0.09967 -0.0996,-0.09967 -0.0996,-0.149504 -0.89703,-1.943554 -1.84389,-3.887108 -2.69108,-5.880496 -0.44852,-0.996695 -0.79735,-1.993389 -1.09636,-2.990083 -0.29901,-1.245868 0,-2.392067 0.74752,-3.388761 0.54818,-0.697686 0.94686,-0.647851 1.34554,0.149504 0.0499,0.09967 0.0996,0.199339 0.1495,0.299009 0.24917,0.847189 0.29901,1.69438 -0.0499,2.54157 -0.0996,0.199338 -0.1495,0.448512 -0.24917,0.697686 -0.0997,0.249174 -0.0499,0.498348 0.24917,0.548182 0.39868,0.04983 0.84719,0.04983 1.24587,0 0.0997,0 0.24917,-0.149505 0.29901,-0.299008 0.24917,-0.747522 0.59802,-1.544876 0.69768,-2.342232 0.29901,-1.794049 -0.39867,-3.48843 -2.5914,-3.887108 -1.64455,-0.299008 -3.23925,-0.04983 -4.68447,0.797355 -1.69438,0.996695 -2.79073,2.441901 -2.64123,4.53496 0.0499,0.647851 0.1495,1.345537 0.34884,1.943553 0.54818,1.345538 1.19604,2.641241 1.79405,3.936943 0.69769,1.594711 1.4452,3.189422 2.19273,4.833967 -0.29902,0.09967 -0.44852,0.149505 -0.59802,0.19934 -1.69438,0.647851 -3.33893,1.345537 -4.78413,2.392066 -0.9967,0.697686 -1.84389,1.495041 -2.24257,2.691074 -0.79735,2.342233 0.24918,4.634629 2.64125,5.730993 1.94355,0.84719 3.98677,0.84719 5.98016,0.249173 2.89041,-0.847189 4.78414,-3.139587 5.08314,-6.079835 0.19934,-1.79405 -0.1495,-3.48843 -0.64785,-5.182811 -0.0499,-0.199338 -0.0996,-0.348842 -0.14951,-0.548182 0.79736,-0.199338 1.49505,-0.398677 2.24257,-0.647851 3.13959,-0.946859 6.1795,-2.192727 8.87058,-4.23595 1.39537,-0.996694 2.4419,-2.292398 3.43859,-3.687769 0.14951,-0.19934 0.34885,-0.398678 0.0499,-0.647852 z m -19.13652,17.143143 c -0.39868,1.395371 -1.44521,2.142893 -2.79075,2.54157 -0.1495,0.04983 -0.34884,0.04983 -0.49835,0.04983 -1.49503,-0.348843 -2.94025,-2.093059 -2.99008,-3.637935 -0.0499,-0.946859 0.29901,-1.744214 0.89702,-2.4419 1.29571,-1.495042 3.03992,-2.242563 4.83398,-2.990084 0.64785,2.192728 1.19602,4.285786 0.54818,6.478514 z m -2.03193,-19.111614 c -0.44851,-0.336385 -1.45766,-0.168192 -1.85011,0.28032 -1.23342,1.51373 -2.41076,3.083523 -3.98055,4.316932 -2.07437,1.569794 -4.373,2.74714 -6.83981,3.644164 -1.34554,0.448513 -2.69109,0.840962 -4.03662,1.233409 -0.0561,-0.112127 -0.11212,-0.112127 -0.11212,-0.168191 -1.00916,-2.186499 -2.07438,-4.372997 -3.02747,-6.615559 -0.50457,-1.121281 -0.89702,-2.242562 -1.2334,-3.363844 -0.33639,-1.401601 0,-2.691074 0.84096,-3.812355 0.6167,-0.784898 1.06522,-0.728834 1.51373,0.168192 0.0561,0.112128 0.11212,0.224256 0.16818,0.336384 0.28033,0.953089 0.3364,1.906178 -0.0561,2.859267 -0.11212,0.224256 -0.16819,0.504576 -0.28032,0.784896 -0.11213,0.280321 -0.0561,0.560641 0.28032,0.616705 0.44851,0.05606 0.95309,0.05606 1.4016,0 0.11213,0 0.28033,-0.168192 0.33639,-0.336384 0.28032,-0.840961 0.67276,-1.737986 0.78489,-2.63501 0.33639,-2.018306 -0.44851,-3.924485 -2.91533,-4.372997 -1.85011,-0.336384 -3.64416,-0.05606 -5.27002,0.897025 -1.90617,1.121281 -3.13959,2.747139 -2.97139,5.101829 0.0561,0.728832 0.16819,1.51373 0.39245,2.186498 0.6167,1.51373 1.34553,2.971395 2.01831,4.429061 0.78489,1.79405 1.62585,3.588099 2.46681,5.438213 -0.33638,0.112128 -0.50458,0.168192 -0.67277,0.224256 -1.90617,0.728833 -3.75629,1.51373 -5.38215,2.691075 -1.12128,0.784897 -2.07436,1.681922 -2.52288,3.027459 -0.89702,2.635011 0.28032,5.213957 2.97139,6.447367 2.18651,0.953088 4.48513,0.953088 6.72769,0.28032 3.25172,-0.953089 5.38216,-3.532036 5.71854,-6.839815 0.22425,-2.018306 -0.1682,-3.924484 -0.72884,-5.830662 -0.0561,-0.224256 -0.11212,-0.392449 -0.16819,-0.616705 0.89703,-0.224256 1.68192,-0.448512 2.52288,-0.728832 3.53204,-1.065218 6.95195,-2.466819 9.9794,-4.765445 1.5698,-1.121281 2.74714,-2.578947 3.86843,-4.14874 0.16818,-0.224257 0.39244,-0.448513 0.0561,-0.728833 z m -21.52859,19.286035 c -0.44852,1.569793 -1.62587,2.410755 -3.1396,2.859267 -0.16818,0.05606 -0.39245,0.05606 -0.56063,0.05606 -1.68193,-0.392448 -3.30778,-2.35469 -3.36385,-4.092676 -0.0561,-1.065217 0.33639,-1.962242 1.00916,-2.747139 1.45766,-1.681922 3.4199,-2.522883 5.43821,-3.363843 0.72883,2.466819 1.34553,4.821508 0.61671,7.288327 z m -1.77926,-18.11492 c -0.64786,-0.299008 -1.39537,-0.04983 -1.74422,0.548183 -0.14951,0.249173 -0.29901,0.498347 -0.44851,0.747521 -1.69438,2.940248 -3.48843,5.730992 -5.93033,8.073223 -2.09306,1.893719 -4.18612,3.737604 -6.77752,4.933637 -2.09306,0.94686 -4.23596,1.644547 -6.52835,1.744216 -1.4452,0.04983 -2.14289,-0.398678 -2.49174,-1.744216 -0.64784,-2.342231 -0.34884,-4.684463 0.39868,-6.877191 1.09637,0 2.09306,0.149505 3.03992,-0.04983 4.78413,-1.096363 7.92372,-4.136281 9.56826,-8.671241 0.69769,-1.893719 -0.0997,-3.039917 -2.09305,-3.388761 -1.74422,-0.348843 -3.43859,-0.149504 -5.08314,0.498348 -4.48513,1.744215 -7.77422,4.784132 -10.06662,8.970249 -1.14619,2.093058 -1.89372,4.33562 -1.74421,6.777522 0.0996,2.043222 1.04653,3.637933 2.84058,4.684463 1.19603,0.647851 2.49174,0.897024 3.78744,0.996694 3.38875,0.149504 6.47851,-0.797356 9.46859,-2.242562 5.0333,-2.441901 8.97025,-6.12967 12.06,-10.764299 0.74752,-1.096363 1.29571,-2.342231 1.94355,-3.538265 0.0997,-0.249174 0.19935,-0.498347 -0.19933,-0.697687 z m -14.45207,-2.54157 c 0.0996,0.348843 0.24918,0.598017 0.24918,0.847191 -0.0499,0.697685 0,1.445207 -0.19935,2.093058 -1.09636,3.239256 -3.33893,5.332314 -6.67785,6.179504 -0.74752,0.149505 -1.34553,0.04983 -1.99339,-0.299007 1.89372,-3.887109 4.7343,-6.777522 8.62141,-8.820746 z m -9.29651,2.641241 c -0.29901,0.09967 -0.44851,0.199338 -0.39868,0.548181 0.0997,0.299008 0,0.548182 -0.0499,0.84719 -0.24918,2.342232 -1.09637,4.53496 -1.99339,6.677853 -0.69769,1.544876 -1.54488,2.990082 -2.69108,4.285785 -1.94355,2.192727 -4.28578,3.687769 -7.12636,4.33562 -2.44191,0.548182 -4.18612,-0.249174 -5.38215,-2.392066 -0.39868,-0.697686 -0.69769,-1.495041 -0.89703,-2.242563 -0.84718,-3.239256 -0.79735,-6.578182 -0.44851,-9.867273 0.0499,-0.348843 0.14951,-0.548182 0.49835,-0.697687 0.24917,-0.09967 0.44851,-0.299007 0.64785,-0.498346 2.79075,-2.541571 5.48182,-5.232646 7.77421,-8.272564 1.89373,-2.491736 3.68778,-5.08314 4.88381,-7.973554 0.69768,-1.744215 1.24586,-3.48843 1.24586,-5.3821493 -0.0499,-1.8937192 -1.14619,-3.2392566 -2.99007,-3.5880996 -2.44191,-0.4983471 -4.63463,0 -6.52836,1.6943804 -1.4452,1.2458679 -2.54157,2.7907441 -3.5881,4.3854555 -2.39207,3.687768 -4.08645,7.674546 -5.28247,11.860662 -1.19604,3.936942 -2.04323,7.973554 -2.09306,12.309175 0,1.445207 0.0997,2.990083 0.49834,4.485124 0.69769,2.591406 1.89372,4.833968 4.28579,6.179505 3.33893,1.893719 6.82736,1.893719 10.36562,0.498348 1.89371,-0.747522 3.48843,-2.043224 4.93364,-3.48843 3.48843,-3.388761 5.48181,-7.475208 5.78082,-12.35901 0.0499,-1.146199 -0.39867,-1.644546 -1.4452,-1.345537 z m -17.59165,-4.53496 c 1.19603,-4.385455 2.79073,-8.621405 5.28247,-12.508514 0.89703,-1.445207 2.04323,-2.7409091 3.13959,-4.1362812 0.19934,-0.2491736 0.49835,-0.4983472 0.79735,-0.7475208 0.9967,1.1461985 1.19604,2.4419012 1.14621,3.787439 -0.14951,2.192727 -0.89703,4.23595 -1.84389,6.22934 -1.09636,2.242562 -2.64124,4.285784 -4.23595,6.179504 -1.59471,1.843884 -3.23926,3.5881 -4.88381,5.431984 -0.0996,0.09967 -0.24916,0.149504 -0.44851,0.199338 0.34885,-1.445206 0.64786,-2.940247 1.04654,-4.435289 z m -27.5665,16.60742 c 0.61671,3.307778 1.85011,6.335238 4.14875,8.85812 2.29863,2.522883 6.44736,3.756292 9.75514,0.280321 1.06521,-1.121281 2.0183,-2.298627 2.85927,-3.5881 2.35469,-3.475972 3.98054,-7.288327 5.15789,-11.268875 0.50458,-1.681923 1.00915,-3.363844 1.51373,-5.10183 0.0561,-0.168192 0.0561,-0.504576 0,-0.56064 -0.33639,-0.112128 -0.72883,-0.280321 -1.06521,-0.224256 -0.22426,0 -0.56065,0.224256 -0.61671,0.448513 -1.12129,3.083522 -2.13043,6.167045 -3.30778,9.194504 -1.34554,3.532036 -3.13958,6.839816 -5.66247,9.755147 -0.67276,0.728832 -1.45767,1.457664 -2.29863,2.074369 -0.89702,0.616705 -1.56979,0.56064 -2.35469,-0.224256 -0.6167,-0.560641 -1.2334,-1.289473 -1.62586,-2.07437 -0.84096,-1.345537 -1.06521,-2.971395 -1.2334,-4.541189 -0.28032,-3.139587 0,-6.22311 0.28032,-9.362697 0,-0.168192 0.11212,-0.336384 0.28032,-0.504577 5.71853,-7.512583 9.64301,-15.866127 11.9977,-25.0045684 0.56064,-2.2425623 0.89703,-4.5411886 0.56064,-6.8958789 C 165.51718,0.78489679 164.67622,0.05606405 162.71398,0 c -2.13044,0 -3.92449,0.78489679 -5.43822,2.1864982 -2.24256,2.0743701 -3.81236,4.5972526 -5.1579,7.2883273 -1.85011,3.7002275 -2.91532,7.6807755 -3.70022,11.7173875 0,0.112128 -0.0561,0.224256 -0.11213,0.448513 -0.72883,-1.23341 -1.73799,-1.906179 -2.97139,-2.186499 -3.53204,-0.840961 -6.67163,-0.05606 -9.25058,2.578947 -1.34554,1.289474 -2.35468,2.859267 -3.08352,4.597252 -1.73798,4.092677 -2.57894,8.353545 -2.07436,12.838669 0.16818,1.345538 0.6167,2.635011 1.45765,3.756292 1.5698,2.242563 3.86843,2.63501 6.39131,2.35469 2.07437,-0.28032 3.86843,-1.233408 5.49428,-2.410754 1.00915,-0.728833 1.96224,-1.513729 3.02746,-2.298626 0,0.168192 0.0561,0.336384 0.11212,0.560641 z m -0.39245,-3.924485 c 0.0561,0.560641 -0.16818,0.897025 -0.56064,1.23341 -1.96223,1.681921 -3.98054,3.251715 -6.27917,4.42906 -0.39244,0.168192 -0.7849,0.336384 -1.17735,0.504577 -0.72882,0.224256 -0.95309,0.224256 -1.17734,-0.560641 -0.33638,-1.009153 -0.6167,-2.018306 -0.67277,-3.083523 -0.33638,-4.597252 0.50458,-9.026313 2.24256,-13.287181 0.67277,-1.681922 1.5698,-3.30778 2.9714,-4.541189 1.17735,-1.065217 1.2334,-1.289473 2.52289,0.112128 1.2334,1.345538 1.90617,2.971395 1.96224,4.765445 0,1.737986 -0.1682,3.532035 -0.22426,5.326085 0,0.224256 0.11213,0.448513 0.22426,0.728833 0,0.168192 0.11212,0.280321 0.11212,0.448512 0,0.728833 0,1.457666 0,2.130435 0,0 0,0 0,0 0,0.616704 -0.0561,1.233409 0.0561,1.794049 z m 10.9325,-26.742555 c 1.12127,-2.747138 2.41075,-5.4382127 4.2048,-7.8489671 0.11213,-0.1681922 0.28032,-0.3924484 0.61671,-0.5606405 0.11212,0.5045764 0.22425,1.009153 0.28032,1.5137294 0.22426,2.8032029 -0.33638,5.4382135 -1.00916,8.1292882 -1.73798,6.615558 -4.59725,12.670477 -8.35354,18.332946 -0.0561,0.112128 -0.1682,0.224257 -0.22426,0.336384 0.84097,-6.78375 1.85011,-13.567501 4.48513,-19.90274 z m -21.91872,19.690943 c -0.64784,-0.448512 -1.54487,-0.199338 -1.84388,0.498347 -0.74752,1.445207 -1.4452,2.890414 -2.14289,4.285786 -1.09636,2.142892 -2.29239,4.086447 -4.03661,5.730992 -2.09306,1.943554 -4.4353,3.388761 -7.3257,3.887108 -0.94687,0.199339 -1.39538,0 -1.69438,-0.94686 -0.19935,-0.797355 -0.34885,-1.594711 -0.34885,-2.392066 0,-2.043223 0.34885,-4.036612 0.89703,-5.980165 0.69769,-2.641241 1.54488,-5.232646 2.29239,-7.824052 0.0997,-0.448512 0.19934,-0.946859 0.19934,-1.395371 0.0499,-0.448512 -0.14951,-0.747521 -0.54817,-0.94686 -0.89704,-0.448513 -2.94025,-0.548182 -3.93696,0.74752 -0.44851,0.647852 -0.94685,1.345538 -1.2957,2.093059 -1.19602,2.392066 -1.94355,4.933637 -2.54157,7.525042 -0.39867,1.694381 -0.74751,3.338926 -0.64785,5.083141 0.0997,2.491735 1.54488,4.43529 3.93694,5.18281 0.79736,0.249174 1.69439,0.299009 2.34224,0.398678 0.79735,-0.04983 1.39537,-0.09967 1.99338,-0.199338 2.39208,-0.498348 4.4353,-1.594711 6.32902,-2.990084 4.0366,-2.990082 6.77752,-6.927025 8.32239,-11.661323 0.0997,-0.199339 0.19934,-0.448513 0.19934,-0.697687 0.0499,-0.149503 -0.0499,-0.348843 -0.14951,-0.398677 z m -18.66543,-1.096363 c -0.299,0.09967 -0.44851,0.199338 -0.39868,0.548181 0.0997,0.299008 0,0.548182 -0.0499,0.84719 -0.24918,2.342232 -1.09637,4.53496 -1.9934,6.677853 -0.69768,1.544876 -1.54487,2.990082 -2.69107,4.285785 -1.94355,2.192727 -4.28578,3.687769 -7.12636,4.33562 -2.4419,0.548182 -4.18612,-0.249174 -5.382151,-2.392066 -0.398677,-0.697686 -0.697685,-1.495041 -0.897025,-2.242563 -0.847189,-3.239256 -0.797354,-6.578182 -0.448512,-9.867273 0.04983,-0.348843 0.149504,-0.548182 0.498348,-0.697687 0.249173,-0.09967 0.448512,-0.299007 0.647851,-0.498346 2.790739,-2.541571 5.481819,-5.232646 7.774219,-8.272564 1.89372,-2.491736 3.68776,-5.08314 4.8838,-7.973554 0.69769,-1.744215 1.24587,-3.48843 1.24587,-5.3821493 -0.0499,-1.8937192 -1.1462,-3.2392566 -2.99009,-3.5880996 -2.4419,-0.4983471 -4.63463,0 -6.52834,1.6943804 -1.44521,1.2458679 -2.54157,2.7907441 -3.5881,4.3854555 -2.39207,3.687768 -4.086451,7.674546 -5.282484,11.860662 -1.196033,3.936942 -2.043223,7.973554 -2.093057,12.309175 0,1.445207 0.09967,2.990083 0.498346,4.485124 0.697686,2.591406 1.893719,4.833968 4.285786,6.179505 3.338929,1.893719 6.827349,1.893719 10.365629,0.498348 1.89371,-0.747522 3.48843,-2.043224 4.93363,-3.48843 3.48843,-3.388761 5.48182,-7.475208 5.78082,-12.35901 0.0499,-1.146199 -0.39867,-1.644546 -1.4452,-1.345537 z m -17.591654,-4.53496 c 1.196034,-4.385455 2.790744,-8.621405 5.282484,-12.508514 0.89702,-1.445207 2.04322,-2.7409091 3.13958,-4.1362812 0.19934,-0.2491736 0.49835,-0.4983472 0.79736,-0.7475208 0.99669,1.1461985 1.19604,2.4419012 1.14619,3.787439 -0.1495,2.192727 -0.89702,4.23595 -1.84388,6.22934 -1.09636,2.242562 -2.64124,4.285784 -4.23595,6.179504 -1.59471,1.843884 -3.23926,3.5881 -4.883801,5.431984 -0.09967,0.09967 -0.249173,0.149504 -0.448513,0.199338 0.348843,-1.445206 0.647852,-2.940247 1.04653,-4.435289 z m -3.043812,4.435289 c -0.647851,-0.299008 -1.395371,-0.04983 -1.744215,0.548183 -0.149504,0.249173 -0.299008,0.498347 -0.448512,0.747521 -1.69438,2.940248 -3.48843,5.730992 -5.930331,8.073223 -2.093059,1.893719 -4.186116,3.737604 -6.777522,4.933637 -2.093057,0.94686 -4.23595,1.644547 -6.528348,1.744216 -1.445206,0.04983 -2.142893,-0.398678 -2.491736,-1.744216 -0.647851,-2.342231 -0.348843,-4.684463 0.398679,-6.877191 1.096363,0 2.093057,0.149505 3.039917,-0.04983 4.784133,-1.096363 7.92372,-4.136281 9.568266,-8.671241 0.697685,-1.893719 -0.09967,-3.039917 -2.093059,-3.388761 -1.744214,-0.348843 -3.438595,-0.149504 -5.083141,0.498348 -4.485124,1.744215 -7.774215,4.784132 -10.066612,8.970249 -1.146199,2.093058 -1.893719,4.33562 -1.744215,6.777522 0.09967,2.043222 1.046529,3.637933 2.840578,4.684463 1.196034,0.647851 2.491736,0.897024 3.787439,0.996694 3.38876,0.149504 6.478513,-0.797356 9.468596,-2.242562 5.033307,-2.441901 8.970248,-6.12967 12.060001,-10.764299 0.747521,-1.096363 1.295703,-2.342231 1.943555,-3.538265 0.09967,-0.249174 0.199338,-0.498347 -0.19934,-0.697687 z m -14.452067,-2.54157 c 0.09967,0.348843 0.249173,0.598017 0.249173,0.847191 -0.04983,0.697685 0,1.445207 -0.199338,2.093058 -1.096365,3.239256 -3.338927,5.332314 -6.677853,6.179504 -0.74752,0.149505 -1.345537,0.04983 -1.993388,-0.299007 1.893719,-3.887109 4.734298,-6.777522 8.621406,-8.820746 z m -9.264585,3.5881 c -0.598017,-0.348843 -1.096364,-0.299008 -1.544876,0.199338 -0.797356,0.897025 -1.594711,1.79405 -2.441902,2.641241 -2.591405,2.591405 -5.631323,4.534959 -8.820744,6.279174 -0.299009,0.149504 -0.598017,0.299008 -0.94686,0.498348 0.04983,-0.19934 0.04983,-0.348844 0.09967,-0.448513 0.19934,-0.847191 0.448512,-1.644546 0.647852,-2.441902 0.398677,-1.49504 0.797355,-2.990082 0.797355,-4.584793 0,-1.594712 -0.84719,-2.441901 -2.691075,-2.591406 -0.448512,-0.04983 -0.797356,0.09967 -1.146198,0.448513 -1.196033,1.096363 -2.392066,2.142893 -3.5881,3.239256 -2.093058,1.843885 -4.235951,3.637935 -6.727687,4.933637 -0.797355,0.398678 -1.644545,0.697686 -2.54157,1.046529 -0.149504,-0.498346 -0.249174,-0.897025 -0.348843,-1.295702 -0.249174,-1.79405 0.04983,-3.48843 0.697686,-5.132976 0.946859,-2.292397 1.993389,-4.584794 2.990083,-6.877191 0.348843,-0.747521 0.647851,-1.495041 0.897025,-2.242563 0.199338,-0.598015 0,-0.946859 -0.548182,-1.245867 -0.996694,-0.548182 -1.993388,-0.647852 -2.990083,0.04983 -0.498347,0.348843 -0.996694,0.74752 -1.395372,1.245868 -1.893719,2.142892 -3.239256,4.584793 -4.285786,7.226034 -0.548182,1.445206 -0.946859,2.940248 -0.946859,4.485124 -0.04983,1.943554 0.448513,3.737604 2.093058,4.933637 1.843885,1.345537 5.332315,2.292397 8.222728,0.149504 1.345538,-1.046529 2.64124,-2.192728 3.936943,-3.338926 0.946859,-0.797356 1.744214,-1.694381 2.691074,-2.64124 -0.04983,0.149504 -0.04983,0.249174 -0.09967,0.299008 -0.996694,2.790744 -1.943554,5.531654 -2.990084,8.322398 -0.09967,0.249174 -0.299007,0.498347 -0.498346,0.647851 -2.691075,1.594711 -5.182811,3.388761 -7.325704,5.730992 -1.544876,1.594711 -2.740909,3.388761 -3.289091,5.581489 -0.498347,1.993389 0.149504,3.289091 2.043223,4.036612 2.491736,0.996694 4.734299,0.598016 6.777522,-1.046529 1.79405,-1.495042 3.139587,-3.338926 4.285786,-5.332314 1.843884,-3.239258 3.139587,-6.777522 4.285786,-10.365622 0.249172,-0.747521 0.598015,-1.196033 1.295702,-1.544877 2.940248,-1.544876 5.830661,-3.139587 8.471902,-5.182809 1.893719,-1.495042 3.48843,-3.189422 5.033306,-5.033307 0.299008,-0.299008 0.199339,-0.498347 -0.09967,-0.647851 z M 44.456969,56.817806 c -0.149504,-0.946859 0,-1.79405 0.199339,-2.64124 0.598017,-2.093058 1.744215,-3.887108 3.289091,-5.382149 0.897025,-0.847191 1.893719,-1.644546 2.890414,-2.491736 0,0.04983 0.04983,0.04983 0.09967,0.09967 -1.544876,3.787439 -3.289091,7.525043 -6.478513,10.415456 z m 1.482417,-33.4205 c -0.994722,-0.459102 -2.142478,-0.07652 -2.678097,0.841688 -0.229552,0.382585 -0.459102,0.76517 -0.688654,1.147755 -2.601579,4.514506 -5.356193,8.799461 -9.105529,12.395763 -3.213716,2.907648 -6.427432,5.738779 -10.406319,7.575189 -3.213717,1.453823 -6.50395,2.525063 -10.023735,2.678097 -2.218995,0.07652 -3.2902334,-0.612137 -3.8258528,-2.678097 -0.9947216,-3.596302 -0.5356193,-7.192604 0.6121365,-10.559354 1.6833763,0 3.2137163,0.229551 4.6675413,-0.07652 7.345637,-1.683376 12.166211,-6.350916 14.691274,-13.313968 1.071239,-2.907647 -0.153034,-4.66754 -3.213716,-5.20316 -2.678097,-0.535619 -5.279677,-0.22955 -7.80474,0.765171 -6.886535,2.678097 -11.9366608,7.345637 -15.4564453,13.77307 -1.75989222,3.213716 -2.90764803,6.656984 -2.67809687,10.406319 0.15303411,3.137199 1.60685807,5.585745 4.36147207,7.192604 1.8364093,0.994721 3.8258527,1.377306 5.8152961,1.53034 5.20316,0.229552 9.947217,-1.224273 14.538241,-3.443266 7.728222,-3.749337 13.77307,-9.411599 18.517127,-16.527685 1.147756,-1.683375 1.989443,-3.596301 2.984165,-5.432711 0.153034,-0.382585 0.306068,-0.76517 -0.306068,-1.071238 z M 23.74944,19.494936 c 0.153034,0.535619 0.382585,0.918205 0.382585,1.30079 -0.07652,1.071239 0,2.218995 -0.306068,3.213716 -1.683375,4.973609 -5.126643,8.187325 -10.253285,9.488115 -1.147755,0.229552 -2.06596,0.07652 -3.060682,-0.459103 2.907648,-5.968329 7.26912,-10.406318 13.23745,-13.543518 z m 309.37294,2.769211 c -1.33106,-0.01806 -2.61528,0.311509 -3.80757,1.010441 -1.86382,1.096363 -3.07088,2.685167 -2.90642,4.987531 0.0548,0.712637 0.16439,1.481296 0.38365,2.139104 0.603,1.48009 1.31622,2.904242 1.97405,4.329515 0.76745,1.754182 1.58895,3.508644 2.41122,5.317644 1.37529,3.462444 1.44967,5.84013 0.82312,8.1125 -0.43855,1.53491 -1.58915,2.358573 -3.06925,2.797109 -0.16445,0.05482 -0.38426,0.05358 -0.54871,0.05358 -1.64455,-0.383727 -3.23526,-2.30226 -3.29008,-4.001624 -0.0548,-1.041545 0.33032,-1.918138 0.98814,-2.685592 0.59668,-0.688478 2.01866,-1.688526 2.01866,-1.688526 0.92326,-0.970873 0.63044,-1.523841 -0.61788,-1.057295 0,0 -1.52247,0.812607 -2.22385,1.320496 -1.09636,0.767455 -2.02846,1.644317 -2.46701,2.959954 -0.87709,2.576454 0.27514,5.097552 2.90642,6.303552 2.1379,0.931908 4.38519,0.932189 6.57792,0.27437 3.17945,-0.931908 5.26087,-3.452943 5.58977,-6.687216 -0.28676,-4.934561 -1.28219,-7.349417 -4.22022,-13.813841 -0.49335,-1.096364 -0.87781,-2.193714 -1.20672,-3.290078 -0.3289,-1.370455 8.1e-4,-2.630898 0.82308,-3.727263 0.603,-0.767454 1.04254,-0.712033 1.48109,0.165067 l 0.16281,0.327882 c 0.2741,0.931909 0.33021,1.865209 -0.0536,2.797118 -0.10964,0.219273 -0.16473,0.493229 -0.27437,0.76732 -0.10963,0.274091 -0.0546,0.547424 0.27437,0.602242 0.43854,0.05482 0.93102,0.05482 1.36957,0 0.10963,0 0.2753,-0.163437 0.33011,-0.327891 0.27409,-0.822273 0.65768,-1.699199 0.76731,-2.576289 0.3289,-1.973455 -0.43865,-3.83744 -2.85065,-4.275985 -0.45225,-0.08223 -0.90134,-0.127836 -1.34502,-0.133837 z" />
</svg>
